<?xml version="1.0" encoding="UTF-8"?>
<svg xmlns="http://www.w3.org/2000/svg" xmlns:xlink="http://www.w3.org/1999/xlink" width="40px" height="px" viewBox="0 0 40 40" version="1.1">
<defs>
<linearGradient id="linear0" gradientUnits="userSpaceOnUse" x1="256" y1="481.79" x2="256" y2="30.21" gradientTransform="matrix(0.078125,0,0,0.078125,0,0)">
<stop offset="0" style="stop-color:rgb(10.196078%,65.882353%,86.27451%);stop-opacity:1;"/>
<stop offset="0.490196" style="stop-color:rgb(68.235294%,23.137255%,53.72549%);stop-opacity:1;"/>
<stop offset="1" style="stop-color:rgb(94.901961%,38.431373%,43.921569%);stop-opacity:1;"/>
</linearGradient>
</defs>
<g id="surface1">
<path style=" stroke:none;fill-rule:evenodd;fill:url(#linear0);" d="M 22.710938 37.640625 L 19.328125 37.640625 L 19.328125 30.355469 C 19.328125 30.050781 19.082031 29.808594 18.78125 29.808594 C 18.480469 29.808594 18.234375 30.050781 18.234375 30.355469 L 18.234375 37.640625 L 5.023438 37.640625 L 5.023438 30.355469 C 5.023438 30.050781 4.777344 29.808594 4.476562 29.808594 C 4.171875 29.808594 3.929688 30.050781 3.929688 30.355469 L 3.929688 37.640625 L 0.546875 37.640625 C 0.246094 37.640625 0 37.394531 0 37.09375 L 0 29.8125 C 0 27.332031 1.347656 25.160156 3.34375 23.988281 L 8.898438 31.351562 C 9 31.488281 9.164062 31.570312 9.332031 31.570312 C 9.355469 31.570312 9.375 31.570312 9.394531 31.566406 C 9.585938 31.542969 9.753906 31.421875 9.832031 31.246094 L 11.628906 27.238281 L 13.421875 31.246094 C 13.5 31.421875 13.667969 31.542969 13.859375 31.566406 C 13.878906 31.570312 13.902344 31.570312 13.921875 31.570312 C 14.09375 31.570312 14.253906 31.488281 14.359375 31.351562 L 19.90625 23.988281 C 21.910156 25.15625 23.257812 27.328125 23.257812 29.8125 L 23.257812 37.09375 C 23.257812 37.394531 23.011719 37.640625 22.710938 37.640625 Z M 31.90625 8.203125 L 39.386719 7.304688 C 39.542969 7.285156 39.699219 7.332031 39.816406 7.4375 C 39.933594 7.542969 40 7.691406 40 7.847656 L 40 19.484375 C 40 19.757812 39.796875 19.992188 39.523438 20.027344 L 31.90625 21.019531 Z M 38.027344 17.519531 L 33.875 17.519531 C 33.574219 17.519531 33.328125 17.273438 33.328125 16.972656 C 33.328125 16.671875 33.574219 16.425781 33.875 16.425781 L 38.027344 16.425781 C 38.332031 16.425781 38.574219 16.671875 38.574219 16.972656 C 38.574219 17.273438 38.332031 17.519531 38.027344 17.519531 Z M 38.027344 14.738281 L 33.875 14.738281 C 33.574219 14.738281 33.328125 14.496094 33.328125 14.191406 C 33.328125 13.890625 33.574219 13.644531 33.875 13.644531 L 38.027344 13.644531 C 38.332031 13.644531 38.574219 13.890625 38.574219 14.191406 C 38.574219 14.496094 38.332031 14.738281 38.027344 14.738281 Z M 38.027344 11.960938 L 33.875 11.960938 C 33.574219 11.960938 33.328125 11.714844 33.328125 11.414062 C 33.328125 11.109375 33.574219 10.867188 33.875 10.867188 L 38.027344 10.867188 C 38.332031 10.867188 38.574219 11.109375 38.574219 11.414062 C 38.574219 11.714844 38.332031 11.960938 38.027344 11.960938 Z M 30.8125 21.019531 L 23.195312 20.027344 C 22.921875 19.992188 22.71875 19.757812 22.71875 19.484375 L 22.71875 7.847656 C 22.71875 7.691406 22.785156 7.542969 22.902344 7.4375 C 23.019531 7.332031 23.175781 7.285156 23.328125 7.304688 L 30.8125 8.203125 Z M 28.839844 17.519531 L 24.6875 17.519531 C 24.386719 17.519531 24.140625 17.273438 24.140625 16.972656 C 24.140625 16.671875 24.386719 16.425781 24.6875 16.425781 L 28.839844 16.425781 C 29.144531 16.425781 29.386719 16.671875 29.386719 16.972656 C 29.386719 17.273438 29.144531 17.519531 28.839844 17.519531 Z M 28.839844 14.738281 L 24.6875 14.738281 C 24.386719 14.738281 24.140625 14.496094 24.140625 14.191406 C 24.140625 13.890625 24.386719 13.644531 24.6875 13.644531 L 28.839844 13.644531 C 29.144531 13.644531 29.386719 13.890625 29.386719 14.191406 C 29.386719 14.496094 29.144531 14.738281 28.839844 14.738281 Z M 28.839844 11.960938 L 24.6875 11.960938 C 24.386719 11.960938 24.140625 11.714844 24.140625 11.414062 C 24.140625 11.109375 24.386719 10.867188 24.6875 10.867188 L 28.839844 10.867188 C 29.144531 10.867188 29.386719 11.109375 29.386719 11.414062 C 29.386719 11.714844 29.144531 11.960938 28.839844 11.960938 Z M 5.371094 11.0625 C 4.03125 9.320312 4.097656 7.046875 4.15625 5.023438 C 4.171875 4.601562 4.183594 4.203125 4.183594 3.8125 C 4.183594 3.589844 4.316406 3.390625 4.519531 3.308594 C 4.722656 3.222656 4.957031 3.269531 5.117188 3.425781 L 5.949219 4.257812 L 5.949219 2.90625 C 5.949219 2.691406 6.074219 2.496094 6.269531 2.40625 C 6.46875 2.320312 6.695312 2.355469 6.859375 2.496094 C 7.707031 3.25 9.019531 3.585938 11.113281 3.585938 C 11.8125 3.585938 12.519531 3.550781 13.207031 3.515625 C 13.707031 3.488281 14.183594 3.464844 14.636719 3.457031 C 14.65625 3.457031 14.675781 3.457031 14.699219 3.457031 C 16.066406 3.457031 17.375 4.382812 18.191406 5.9375 C 19.054688 7.582031 19.5 10.308594 17.984375 12.679688 C 18.054688 13.125 18.085938 13.570312 18.085938 14.03125 C 18.085938 16.722656 16.859375 19.09375 15.007812 20.441406 L 15.007812 22.5 L 11.832031 25.023438 L 11.414062 25.039062 L 8.25 22.5 L 8.25 20.664062 C 6.21875 19.367188 4.839844 16.878906 4.839844 14.03125 C 4.839844 12.996094 5.027344 11.988281 5.371094 11.0625 Z M 16.886719 12.75 C 16.148438 11.5 14.734375 10.074219 13.125 10.152344 C 13.019531 10.15625 12.914062 10.160156 12.804688 10.160156 C 10.664062 10.160156 9.09375 9.136719 8.421875 8.609375 C 6.878906 9.804688 5.933594 11.84375 5.933594 14.03125 C 5.933594 17.613281 8.414062 20.527344 11.464844 20.527344 C 14.511719 20.527344 16.996094 17.613281 16.996094 14.03125 C 16.996094 13.59375 16.957031 13.171875 16.886719 12.75 Z M 4.351562 23.507812 C 5.09375 23.222656 5.902344 23.066406 6.746094 23.066406 L 7.207031 23.066406 L 10.953125 26.070312 L 9.214844 29.953125 Z M 16.054688 23.066406 L 16.511719 23.066406 C 17.351562 23.066406 18.160156 23.222656 18.902344 23.503906 L 14.042969 29.953125 L 12.292969 26.054688 Z M 16.054688 23.066406 "/>
</g>
</svg>
