<?xml version="1.0" encoding="UTF-8"?>
<svg xmlns="http://www.w3.org/2000/svg" xmlns:xlink="http://www.w3.org/1999/xlink" width="40px" height="px" viewBox="0 0 40 40" version="1.1">
<defs>
<linearGradient id="linear0" gradientUnits="userSpaceOnUse" x1="0" y1="240" x2="480" y2="240" gradientTransform="matrix(0.0833333,0,0,0.0833333,0,0)">
<stop offset="0" style="stop-color:rgb(53.333333%,69.411765%,29.411765%);stop-opacity:1;"/>
<stop offset="1" style="stop-color:rgb(4.705882%,29.803922%,54.117647%);stop-opacity:1;"/>
</linearGradient>
</defs>
<g id="surface1">
<path style=" stroke:none;fill-rule:nonzero;fill:url(#linear0);" d="M 26 19.667969 L 30 19.667969 L 30 21 L 26 21 Z M 16.667969 15.667969 L 20.667969 15.667969 L 20.667969 17 L 16.667969 17 Z M 6.667969 15.667969 L 10.667969 15.667969 L 10.667969 17 L 6.667969 17 Z M 16.667969 21.667969 L 20.667969 21.667969 L 20.667969 23 L 16.667969 23 Z M 11.332031 7.667969 L 16.667969 7.667969 L 16.667969 9 L 11.332031 9 Z M 38 35 L 7.332031 35 C 7.234375 35 7.125 35.023438 7.035156 35.066406 L 4.367188 36.398438 C 4.035156 36.566406 3.898438 36.964844 4.066406 37.292969 C 4.132812 37.425781 4.234375 37.523438 4.367188 37.589844 L 7.035156 38.925781 C 7.125 38.976562 7.226562 39 7.332031 39 L 38 39 C 39.109375 39 40 38.109375 40 37 C 40 35.890625 39.109375 35 38 35 Z M 38 37.667969 L 35.332031 37.667969 L 35.332031 36.332031 L 38 36.332031 C 38.367188 36.332031 38.667969 36.632812 38.667969 37 C 38.667969 37.367188 38.367188 37.667969 38 37.667969 Z M 0 36.332031 L 0 37 C 0 37.367188 0.300781 37.667969 0.667969 37.667969 L 1.332031 37.667969 L 1.332031 36.332031 Z M 3.175781 31.75 C 2.667969 31.859375 2.175781 32.066406 1.742188 32.359375 L 2.492188 33.457031 C 2.773438 33.257812 3.101562 33.125 3.441406 33.050781 Z M 28.265625 30.417969 C 28.082031 30.714844 27.839844 30.976562 27.550781 31.175781 L 28.324219 32.257812 C 28.75 31.949219 29.117188 31.566406 29.390625 31.125 Z M 0.660156 33.464844 C 0.367188 33.898438 0.167969 34.390625 0.0664062 34.910156 L 1.375 35.160156 C 1.441406 34.816406 1.574219 34.492188 1.765625 34.199219 Z M 4.617188 31.667969 L 5.917969 31.667969 L 5.917969 33 L 4.617188 33 Z M 12.433594 31.667969 L 13.734375 31.667969 L 13.734375 33 L 12.433594 33 Z M 7.214844 31.667969 L 8.515625 31.667969 L 8.515625 33 L 7.214844 33 Z M 17.640625 31.667969 L 18.941406 31.667969 L 18.941406 33 L 17.640625 33 Z M 20.25 31.667969 L 21.550781 31.667969 L 21.550781 33 L 20.25 33 Z M 15.035156 31.667969 L 16.332031 31.667969 L 16.332031 33 L 15.035156 33 Z M 26.609375 31.601562 C 26.410156 31.640625 26.207031 31.667969 26 31.667969 L 25.457031 31.667969 L 25.457031 33 L 26 33 C 26.308594 33 26.609375 32.964844 26.910156 32.898438 Z M 9.824219 31.667969 L 11.125 31.667969 L 11.125 33 L 9.824219 33 Z M 22.851562 31.667969 L 24.148438 31.667969 L 24.148438 33 L 22.851562 33 Z M 16.667969 21.667969 L 20.667969 21.667969 L 20.667969 23 L 16.667969 23 Z M 16.667969 15.667969 L 20.667969 15.667969 L 20.667969 17 L 16.667969 17 Z M 26 19.667969 L 30 19.667969 L 30 21 L 26 21 Z M 6.667969 15.667969 L 10.667969 15.667969 L 10.667969 17 L 6.667969 17 Z M 11.332031 7.667969 L 16.667969 7.667969 L 16.667969 9 L 11.332031 9 Z M 36.667969 1 L 3.332031 1 C 1.492188 1 0 2.492188 0 4.332031 L 0 27 C 0 28.839844 1.492188 30.332031 3.332031 30.332031 L 36.667969 30.332031 C 38.507812 30.332031 40 28.839844 40 27 L 40 4.332031 C 40 2.492188 38.507812 1 36.667969 1 Z M 30 29 C 30 29.226562 29.984375 29.449219 29.941406 29.675781 L 28.625 29.457031 C 28.648438 29.308594 28.667969 29.160156 28.667969 29.007812 L 28.667969 28.265625 L 30 28.265625 Z M 30 26.957031 L 28.667969 26.957031 L 28.667969 25.660156 L 30 25.660156 Z M 30 24.332031 L 28.667969 24.332031 L 28.667969 23 L 30 23 Z M 30.667969 22.332031 L 25.332031 22.332031 C 24.964844 22.332031 24.667969 22.035156 24.667969 21.667969 L 24.667969 19 C 24.667969 18.632812 24.964844 18.332031 25.332031 18.332031 L 27.332031 18.332031 L 27.332031 17 L 22 17 L 22 17.667969 C 22 18.035156 21.699219 18.332031 21.332031 18.332031 L 19.332031 18.332031 L 19.332031 20.332031 L 21.332031 20.332031 C 21.699219 20.332031 22 20.632812 22 21 L 22 23.667969 C 22 24.035156 21.699219 24.332031 21.332031 24.332031 L 16 24.332031 C 15.632812 24.332031 15.332031 24.035156 15.332031 23.667969 L 15.332031 21 C 15.332031 20.632812 15.632812 20.332031 16 20.332031 L 18 20.332031 L 18 18.332031 L 16 18.332031 C 15.632812 18.332031 15.332031 18.035156 15.332031 17.667969 L 15.332031 15 C 15.332031 14.632812 15.632812 14.332031 16 14.332031 L 18 14.332031 L 18 13 L 9.332031 13 L 9.332031 14.332031 L 11.332031 14.332031 C 11.699219 14.332031 12 14.632812 12 15 L 12 17.667969 C 12 18.035156 11.699219 18.332031 11.332031 18.332031 L 6 18.332031 C 5.632812 18.332031 5.332031 18.035156 5.332031 17.667969 L 5.332031 15 C 5.332031 14.632812 5.632812 14.332031 6 14.332031 L 8 14.332031 L 8 12.332031 C 8 11.964844 8.300781 11.667969 8.667969 11.667969 L 13.332031 11.667969 L 13.332031 10.332031 L 10.667969 10.332031 C 10.300781 10.332031 10 10.035156 10 9.667969 L 10 7 C 10 6.632812 10.300781 6.332031 10.667969 6.332031 L 17.332031 6.332031 C 17.699219 6.332031 18 6.632812 18 7 L 18 9.667969 C 18 10.035156 17.699219 10.332031 17.332031 10.332031 L 14.667969 10.332031 L 14.667969 11.667969 L 18.667969 11.667969 C 19.035156 11.667969 19.332031 11.964844 19.332031 12.332031 L 19.332031 14.332031 L 21.332031 14.332031 C 21.699219 14.332031 22 14.632812 22 15 L 22 15.667969 L 28 15.667969 C 28.367188 15.667969 28.667969 15.964844 28.667969 16.332031 L 28.667969 18.332031 L 30.667969 18.332031 C 31.035156 18.332031 31.332031 18.632812 31.332031 19 L 31.332031 21.667969 C 31.332031 22.035156 31.035156 22.332031 30.667969 22.332031 Z M 34.667969 27 C 34.667969 27.367188 34.367188 27.667969 34 27.667969 L 31.332031 27.667969 L 31.332031 26.332031 L 33.332031 26.332031 L 33.332031 5 L 4 5 L 4 26.332031 L 27.332031 26.332031 L 27.332031 27.667969 L 3.332031 27.667969 C 2.964844 27.667969 2.667969 27.367188 2.667969 27 L 2.667969 4.332031 C 2.667969 3.964844 2.964844 3.667969 3.332031 3.667969 L 34 3.667969 C 34.367188 3.667969 34.667969 3.964844 34.667969 4.332031 Z M 37.332031 19 L 36 19 L 36 12.332031 L 37.332031 12.332031 Z M 37.332031 19 "/>
</g>
</svg>
