<?xml version="1.0" encoding="UTF-8"?>
<svg xmlns="http://www.w3.org/2000/svg" xmlns:xlink="http://www.w3.org/1999/xlink" width="40px" height="px" viewBox="0 0 40 40" version="1.1">
<g id="surface1">
<path style=" stroke:none;fill-rule:nonzero;fill:rgb(35.294118%,25.490196%,27.45098%);fill-opacity:1;" d="M 29.03125 17.742188 L 29.03125 18.195312 C 29.03125 18.75 29.121094 19.300781 29.296875 19.828125 L 30.324219 22.902344 L 32.257812 22.902344 L 32.257812 15.804688 L 30.96875 15.804688 C 29.898438 15.804688 29.03125 16.671875 29.03125 17.742188 Z M 29.03125 17.742188 "/>
<path style=" stroke:none;fill-rule:nonzero;fill:rgb(41.176471%,29.411765%,29.411765%);fill-opacity:1;" d="M 37.867188 19.082031 L 36.773438 22.902344 L 31.613281 18.386719 C 30.898438 18.386719 30.324219 17.808594 30.324219 17.097656 C 30.324219 16.027344 31.1875 15.160156 32.257812 15.160156 L 36.773438 15.160156 C 37.488281 15.160156 38.0625 15.738281 38.0625 16.453125 L 38.0625 17.664062 C 38.066406 18.144531 37.996094 18.621094 37.867188 19.082031 Z M 37.867188 19.082031 "/>
<path style=" stroke:none;fill-rule:nonzero;fill:rgb(90.196078%,68.627451%,47.058824%);fill-opacity:1;" d="M 31.613281 24.839844 L 35.484375 24.839844 L 35.484375 27.695312 L 31.613281 27.695312 Z M 31.613281 24.839844 "/>
<path style=" stroke:none;fill-rule:nonzero;fill:rgb(82.352941%,60.784314%,43.137255%);fill-opacity:1;" d="M 31.613281 26.023438 C 32.210938 26.265625 32.863281 26.402344 33.546875 26.402344 C 34.234375 26.402344 34.886719 26.265625 35.484375 26.023438 L 35.484375 24.839844 L 31.613281 24.839844 Z M 31.613281 26.023438 "/>
<path style=" stroke:none;fill-rule:nonzero;fill:rgb(83.529412%,86.27451%,92.941176%);fill-opacity:1;" d="M 38.597656 27.292969 L 35.484375 26.402344 L 33.546875 27.6875 L 31.613281 26.402344 L 28.5 27.292969 C 27.667969 27.53125 27.097656 28.289062 27.097656 29.152344 L 27.097656 33.871094 C 27.097656 34.226562 27.386719 34.515625 27.742188 34.515625 L 39.355469 34.515625 C 39.710938 34.515625 40 34.226562 40 33.871094 L 40 29.152344 C 40 28.289062 39.425781 27.53125 38.597656 27.292969 Z M 38.597656 27.292969 "/>
<path style=" stroke:none;fill-rule:nonzero;fill:rgb(68.627451%,72.54902%,82.352941%);fill-opacity:1;" d="M 34.195312 34.515625 L 32.902344 34.515625 L 33.226562 27.695312 L 33.871094 27.695312 Z M 34.195312 34.515625 "/>
<path style=" stroke:none;fill-rule:nonzero;fill:rgb(94.117647%,75.294118%,52.941176%);fill-opacity:1;" d="M 33.546875 25.484375 C 31.410156 25.484375 29.675781 23.75 29.675781 21.613281 L 29.675781 20.855469 C 29.675781 20.515625 29.8125 20.1875 30.054688 19.945312 L 31.226562 18.773438 C 31.472656 18.527344 31.8125 18.382812 32.160156 18.394531 C 34.222656 18.460938 36.050781 18.902344 37.046875 19.878906 C 37.292969 20.117188 37.417969 20.449219 37.417969 20.789062 L 37.417969 21.613281 C 37.417969 23.75 35.6875 25.484375 33.546875 25.484375 Z M 33.546875 25.484375 "/>
<path style=" stroke:none;fill-rule:nonzero;fill:rgb(90.196078%,68.627451%,47.058824%);fill-opacity:1;" d="M 31.613281 21.015625 C 31.613281 20.273438 32.238281 19.679688 32.980469 19.730469 C 34.28125 19.8125 36.214844 20.03125 37.402344 20.601562 C 37.363281 20.328125 37.246094 20.070312 37.046875 19.875 C 36.050781 18.902344 34.222656 18.460938 32.160156 18.394531 C 31.8125 18.382812 31.472656 18.527344 31.226562 18.773438 L 30.054688 19.945312 C 29.8125 20.1875 29.675781 20.515625 29.675781 20.855469 L 29.675781 21.613281 C 29.675781 23.378906 30.859375 24.863281 32.476562 25.328125 C 31.9375 24.667969 31.613281 23.824219 31.613281 22.902344 Z M 31.613281 21.015625 "/>
<path style=" stroke:none;fill-rule:nonzero;fill:rgb(78.039216%,81.176471%,88.627451%);fill-opacity:1;" d="M 37.417969 31.078125 C 37.417969 30.5625 37.625 30.070312 37.984375 29.707031 L 39.648438 28.046875 C 39.867188 28.363281 40 28.746094 40 29.152344 L 40 33.871094 C 40 34.226562 39.710938 34.515625 39.355469 34.515625 L 37.417969 34.515625 Z M 37.417969 31.078125 "/>
<path style=" stroke:none;fill-rule:nonzero;fill:rgb(58.431373%,61.176471%,70.980392%);fill-opacity:1;" d="M 33.871094 28.984375 L 33.226562 28.984375 C 33.046875 28.984375 32.902344 28.839844 32.902344 28.660156 L 32.902344 27.695312 L 34.195312 27.695312 L 34.195312 28.660156 C 34.195312 28.839844 34.050781 28.984375 33.871094 28.984375 Z M 33.871094 28.984375 "/>
<path style=" stroke:none;fill-rule:nonzero;fill:rgb(78.039216%,81.176471%,88.627451%);fill-opacity:1;" d="M 33.546875 27.6875 L 32.453125 28.523438 C 32.265625 28.667969 31.992188 28.609375 31.878906 28.402344 L 30.898438 26.609375 L 31.292969 26.007812 C 31.382812 25.875 31.570312 25.851562 31.6875 25.960938 Z M 33.546875 27.6875 "/>
<path style=" stroke:none;fill-rule:nonzero;fill:rgb(78.039216%,81.176471%,88.627451%);fill-opacity:1;" d="M 33.546875 27.6875 L 34.640625 28.523438 C 34.832031 28.667969 35.101562 28.609375 35.214844 28.402344 L 36.199219 26.609375 L 35.800781 26.007812 C 35.714844 25.875 35.527344 25.851562 35.410156 25.960938 Z M 33.546875 27.6875 "/>
<path style=" stroke:none;fill-rule:nonzero;fill:rgb(35.294118%,25.490196%,27.45098%);fill-opacity:1;" d="M 11.546875 25.214844 C 10.996094 23.753906 10.558594 21.242188 10.464844 19.933594 C 10.285156 17.445312 8.410156 15.417969 5.875 15.417969 C 3.34375 15.417969 1.46875 17.445312 1.289062 19.933594 C 1.191406 21.242188 0.753906 23.753906 0.203125 25.214844 C 0.0820312 25.535156 0.222656 25.890625 0.539062 26.035156 C 1.132812 26.304688 2.390625 26.828125 3.910156 27.03125 L 7.84375 27.03125 C 9.355469 26.828125 10.625 26.300781 11.210938 26.035156 C 11.53125 25.890625 11.671875 25.535156 11.546875 25.214844 Z M 11.546875 25.214844 "/>
<path style=" stroke:none;fill-rule:nonzero;fill:rgb(41.176471%,29.411765%,29.411765%);fill-opacity:1;" d="M 11.210938 26.035156 C 11.53125 25.890625 11.671875 25.535156 11.546875 25.214844 C 10.996094 23.753906 10.558594 21.242188 10.464844 19.933594 C 10.285156 17.445312 8.410156 15.417969 5.875 15.417969 C 5.871094 15.417969 5.863281 15.417969 5.855469 15.417969 C 3.914062 15.425781 3.226562 18.078125 4.898438 19.070312 C 5 19.128906 5.0625 19.15625 5.0625 19.15625 L 6.53125 27.03125 L 7.84375 27.03125 C 9.355469 26.828125 10.625 26.300781 11.210938 26.035156 Z M 11.210938 26.035156 "/>
<path style=" stroke:none;fill-rule:nonzero;fill:rgb(90.196078%,68.627451%,47.058824%);fill-opacity:1;" d="M 10.542969 28.328125 L 8.457031 27.285156 C 8.019531 27.066406 7.742188 26.617188 7.742188 26.128906 L 7.742188 24.195312 L 3.871094 24.195312 L 3.871094 26.128906 C 3.871094 26.617188 3.59375 27.066406 3.15625 27.285156 L 1.070312 28.328125 C 0.414062 28.65625 0 29.324219 0 30.058594 L 0 33.871094 C 0 34.226562 0.289062 34.515625 0.644531 34.515625 L 10.96875 34.515625 C 11.324219 34.515625 11.613281 34.226562 11.613281 33.871094 L 11.613281 30.058594 C 11.613281 29.324219 11.199219 28.65625 10.542969 28.328125 Z M 10.542969 28.328125 "/>
<path style=" stroke:none;fill-rule:nonzero;fill:rgb(82.352941%,60.784314%,43.137255%);fill-opacity:1;" d="M 5.804688 26.773438 C 6.5 26.773438 7.167969 26.632812 7.777344 26.375 C 7.761719 26.292969 7.742188 26.214844 7.742188 26.128906 L 7.742188 24.195312 L 3.871094 24.195312 L 3.871094 26.128906 C 3.871094 26.214844 3.851562 26.296875 3.835938 26.378906 C 4.445312 26.632812 5.113281 26.773438 5.804688 26.773438 Z M 5.804688 26.773438 "/>
<path style=" stroke:none;fill-rule:nonzero;fill:rgb(83.529412%,86.27451%,92.941176%);fill-opacity:1;" d="M 10.542969 28.328125 L 9.054688 27.582031 C 8.367188 28.648438 7.167969 29.355469 5.804688 29.355469 C 4.441406 29.355469 3.246094 28.648438 2.558594 27.582031 L 1.070312 28.328125 C 0.414062 28.65625 0 29.324219 0 30.058594 L 0 33.871094 C 0 34.226562 0.289062 34.515625 0.644531 34.515625 L 10.96875 34.515625 C 11.324219 34.515625 11.613281 34.226562 11.613281 33.871094 L 11.613281 30.058594 C 11.613281 29.324219 11.199219 28.65625 10.542969 28.328125 Z M 10.542969 28.328125 "/>
<path style=" stroke:none;fill-rule:nonzero;fill:rgb(94.117647%,75.294118%,52.941176%);fill-opacity:1;" d="M 5.804688 25.484375 C 3.839844 25.484375 2.214844 24.015625 1.96875 22.113281 C 1.933594 21.839844 2.0625 21.570312 2.3125 21.441406 C 2.609375 21.292969 3.042969 21.039062 3.453125 20.671875 C 3.914062 20.261719 4.183594 19.828125 4.335938 19.511719 C 4.46875 19.238281 4.769531 19.082031 5.066406 19.15625 C 7.335938 19.734375 8.882812 20.917969 9.445312 21.402344 C 9.59375 21.53125 9.679688 21.722656 9.664062 21.917969 C 9.507812 23.914062 7.839844 25.484375 5.804688 25.484375 Z M 5.804688 25.484375 "/>
<path style=" stroke:none;fill-rule:nonzero;fill:rgb(90.196078%,68.627451%,47.058824%);fill-opacity:1;" d="M 9.445312 21.402344 C 8.882812 20.917969 7.335938 19.734375 5.0625 19.15625 C 4.769531 19.082031 4.46875 19.238281 4.335938 19.511719 C 4.222656 19.75 4.03125 20.058594 3.746094 20.371094 C 3.746094 20.371094 3.746094 20.371094 3.746094 20.375 C 3.660156 20.472656 3.566406 20.574219 3.453125 20.671875 C 3.042969 21.039062 2.609375 21.292969 2.3125 21.441406 C 2.0625 21.570312 1.933594 21.839844 1.96875 22.113281 C 2.1875 23.820312 3.523438 25.179688 5.21875 25.441406 C 4.445312 24.914062 3.871094 24.191406 3.871094 22.902344 L 3.871094 21.984375 C 4.015625 21.875 4.164062 21.765625 4.3125 21.636719 C 4.671875 21.316406 4.984375 20.945312 5.234375 20.546875 C 6.972656 21.089844 8.152344 21.992188 8.597656 22.375 C 8.722656 22.484375 9.023438 22.761719 9.378906 23.097656 C 9.53125 22.726562 9.632812 22.332031 9.664062 21.917969 C 9.679688 21.722656 9.59375 21.53125 9.445312 21.402344 Z M 9.445312 21.402344 "/>
<path style=" stroke:none;fill-rule:nonzero;fill:rgb(78.039216%,81.176471%,88.627451%);fill-opacity:1;" d="M 0.394531 28.894531 C 0.144531 29.226562 0 29.628906 0 30.058594 L 0 33.871094 C 0 34.226562 0.289062 34.515625 0.644531 34.515625 L 2.582031 34.515625 L 2.582031 31.265625 C 2.582031 30.875 2.402344 30.503906 2.097656 30.257812 Z M 0.394531 28.894531 "/>
<path style=" stroke:none;fill-rule:nonzero;fill:rgb(100%,31.372549%,49.019608%);fill-opacity:1;" d="M 29.269531 27.445312 L 23.871094 25.484375 L 20 26.773438 L 16.128906 25.484375 L 10.730469 27.445312 C 9.710938 27.816406 9.03125 28.785156 9.03125 29.871094 L 9.03125 33.871094 C 9.03125 34.226562 9.320312 34.515625 9.675781 34.515625 L 30.324219 34.515625 C 30.679688 34.515625 30.96875 34.226562 30.96875 33.871094 L 30.96875 29.871094 C 30.96875 28.785156 30.289062 27.816406 29.269531 27.445312 Z M 29.269531 27.445312 "/>
<path style=" stroke:none;fill-rule:nonzero;fill:rgb(43.921569%,45.490196%,52.941176%);fill-opacity:1;" d="M 19.324219 28.066406 L 18.710938 34.515625 L 21.289062 34.515625 L 20.675781 28.066406 Z M 19.324219 28.066406 "/>
<path style=" stroke:none;fill-rule:nonzero;fill:rgb(35.686275%,36.470588%,43.137255%);fill-opacity:1;" d="M 20.675781 28.949219 L 19.324219 28.949219 C 19.074219 28.949219 18.871094 28.75 18.871094 28.5 L 18.871094 26.773438 L 21.128906 26.773438 L 21.128906 28.5 C 21.128906 28.75 20.925781 28.949219 20.675781 28.949219 Z M 20.675781 28.949219 "/>
<path style=" stroke:none;fill-rule:nonzero;fill:rgb(82.352941%,23.529412%,41.176471%);fill-opacity:1;" d="M 30.273438 28.113281 C 30.707031 28.582031 30.96875 29.203125 30.96875 29.871094 L 30.96875 33.871094 C 30.96875 34.226562 30.679688 34.515625 30.324219 34.515625 L 27.097656 34.515625 L 27.097656 32.359375 C 27.097656 31.675781 27.367188 31.019531 27.851562 30.535156 Z M 30.273438 28.113281 "/>
<path style=" stroke:none;fill-rule:nonzero;fill:rgb(35.294118%,25.490196%,27.45098%);fill-opacity:1;" d="M 27.097656 12.179688 L 27.097656 6.773438 C 27.097656 6.0625 26.519531 5.484375 25.804688 5.484375 L 18.066406 5.484375 C 15.214844 5.484375 12.902344 7.792969 12.902344 10.644531 L 12.902344 12.179688 C 12.902344 12.871094 13.015625 13.5625 13.234375 14.21875 L 13.449219 14.863281 C 13.515625 15.0625 13.546875 15.265625 13.546875 15.476562 L 13.546875 15.804688 L 26.453125 15.804688 L 26.453125 15.476562 C 26.453125 15.265625 26.484375 15.0625 26.550781 14.863281 L 26.765625 14.21875 C 26.984375 13.5625 27.097656 12.871094 27.097656 12.179688 Z M 27.097656 12.179688 "/>
<path style=" stroke:none;fill-rule:nonzero;fill:rgb(41.176471%,29.411765%,29.411765%);fill-opacity:1;" d="M 16.128906 8.105469 C 16.128906 9.550781 17.300781 10.726562 18.75 10.726562 L 19.113281 10.726562 L 19.289062 15.804688 L 26.453125 15.804688 L 26.453125 15.476562 C 26.453125 15.265625 26.484375 15.0625 26.550781 14.863281 L 26.765625 14.21875 C 26.984375 13.5625 27.097656 12.871094 27.097656 12.179688 L 27.097656 6.773438 C 27.097656 6.0625 26.519531 5.484375 25.804688 5.484375 L 18.75 5.484375 C 17.300781 5.484375 16.128906 6.65625 16.128906 8.105469 Z M 16.128906 8.105469 "/>
<path style=" stroke:none;fill-rule:nonzero;fill:rgb(90.196078%,68.627451%,47.058824%);fill-opacity:1;" d="M 16.128906 20.96875 L 23.871094 20.96875 L 23.871094 26.773438 L 16.128906 26.773438 Z M 16.128906 20.96875 "/>
<path style=" stroke:none;fill-rule:nonzero;fill:rgb(82.352941%,60.784314%,43.137255%);fill-opacity:1;" d="M 16.128906 23.148438 C 17.269531 23.808594 18.589844 24.195312 20 24.195312 C 21.410156 24.195312 22.730469 23.808594 23.871094 23.148438 L 23.871094 20.96875 L 16.128906 20.96875 Z M 16.128906 23.148438 "/>
<path style=" stroke:none;fill-rule:nonzero;fill:rgb(82.352941%,23.529412%,41.176471%);fill-opacity:1;" d="M 20 26.773438 L 17.941406 28.832031 C 17.664062 29.109375 17.207031 29.078125 16.972656 28.765625 L 14.839844 25.953125 L 15.398438 24.777344 C 15.5625 24.429688 15.992188 24.304688 16.316406 24.503906 Z M 20 26.773438 "/>
<path style=" stroke:none;fill-rule:nonzero;fill:rgb(82.352941%,23.529412%,41.176471%);fill-opacity:1;" d="M 20 26.773438 L 22.058594 28.832031 C 22.335938 29.109375 22.792969 29.078125 23.027344 28.765625 L 25.160156 25.953125 L 24.601562 24.777344 C 24.4375 24.429688 24.007812 24.304688 23.683594 24.503906 Z M 20 26.773438 "/>
<path style=" stroke:none;fill-rule:nonzero;fill:rgb(94.117647%,75.294118%,52.941176%);fill-opacity:1;" d="M 20 22.902344 C 16.4375 22.902344 13.546875 20.015625 13.546875 16.453125 L 13.546875 15.695312 C 13.546875 15.351562 13.683594 15.023438 13.925781 14.785156 L 14.460938 14.25 C 14.703125 14.007812 14.839844 13.679688 14.839844 13.335938 L 14.839844 11.789062 C 14.839844 11.492188 15.039062 11.230469 15.328125 11.164062 C 16.855469 10.800781 21.605469 9.949219 24.835938 12.324219 C 25.046875 12.480469 25.160156 12.734375 25.160156 12.992188 L 25.160156 13.335938 C 25.160156 13.679688 25.296875 14.007812 25.539062 14.25 L 26.074219 14.785156 C 26.316406 15.023438 26.453125 15.351562 26.453125 15.695312 L 26.453125 16.453125 C 26.453125 20.015625 23.5625 22.902344 20 22.902344 Z M 20 22.902344 "/>
<path style=" stroke:none;fill-rule:nonzero;fill:rgb(90.196078%,68.627451%,47.058824%);fill-opacity:1;" d="M 24.835938 12.324219 C 22.5625 10.652344 19.542969 10.582031 17.417969 10.808594 C 16.523438 10.90625 15.78125 11.054688 15.328125 11.164062 C 15.039062 11.230469 14.839844 11.492188 14.839844 11.789062 L 14.839844 13.335938 C 14.839844 13.679688 14.703125 14.007812 14.460938 14.25 L 13.925781 14.785156 C 13.683594 15.027344 13.546875 15.355469 13.546875 15.695312 L 13.546875 16.453125 C 13.546875 19.75 16.027344 22.464844 19.21875 22.851562 C 18.105469 21.691406 17.417969 20.121094 17.417969 18.386719 L 17.417969 13.671875 C 17.417969 13.019531 17.90625 12.472656 18.554688 12.390625 C 20.101562 12.195312 22.9375 12.078125 25.160156 13.335938 L 25.160156 12.992188 C 25.160156 12.734375 25.046875 12.480469 24.835938 12.324219 Z M 24.835938 12.324219 "/>
<path style=" stroke:none;fill-rule:nonzero;fill:rgb(82.352941%,23.529412%,41.176471%);fill-opacity:1;" d="M 9.726562 28.113281 C 9.292969 28.582031 9.03125 29.203125 9.03125 29.871094 L 9.03125 33.871094 C 9.03125 34.226562 9.320312 34.515625 9.675781 34.515625 L 12.902344 34.515625 L 12.902344 32.359375 C 12.902344 31.675781 12.632812 31.019531 12.148438 30.535156 Z M 9.726562 28.113281 "/>
</g>
</svg>
