<?xml version="1.0" encoding="UTF-8"?>
<svg xmlns="http://www.w3.org/2000/svg" xmlns:xlink="http://www.w3.org/1999/xlink" width="40px" height="px" viewBox="0 0 40 40" version="1.1">
<defs>
<linearGradient id="linear0" gradientUnits="userSpaceOnUse" x1="16.902" y1="473.444" x2="475.793" y2="14.553" gradientTransform="matrix(0.078125,0,0,0.078125,0,0)">
<stop offset="0" style="stop-color:rgb(25.490196%,87.45098%,81.568627%);stop-opacity:1;"/>
<stop offset="1" style="stop-color:rgb(93.333333%,51.372549%,93.72549%);stop-opacity:1;"/>
</linearGradient>
</defs>
<g id="surface1">
<path style=" stroke:none;fill-rule:nonzero;fill:url(#linear0);" d="M 14.375 8.125 C 14.375 7.78125 14.65625 7.5 15 7.5 C 15.34375 7.5 15.625 7.78125 15.625 8.125 C 15.625 8.46875 15.34375 8.75 15 8.75 C 14.65625 8.75 14.375 8.46875 14.375 8.125 Z M 23.75 9.375 L 23.75 6.25 C 23.75 5.90625 24.03125 5.625 24.375 5.625 L 27.5 5.625 C 27.84375 5.625 28.125 5.90625 28.125 6.25 L 28.125 9.375 C 28.125 9.71875 27.84375 10 27.5 10 L 24.375 10 C 24.03125 10 23.75 9.71875 23.75 9.375 Z M 25 8.75 L 26.875 8.75 L 26.875 6.875 L 25 6.875 Z M 23.75 15 L 23.75 11.875 C 23.75 11.53125 24.03125 11.25 24.375 11.25 L 27.5 11.25 C 27.84375 11.25 28.125 11.53125 28.125 11.875 L 28.125 15 C 28.125 15.34375 27.84375 15.625 27.5 15.625 L 24.375 15.625 C 24.03125 15.625 23.75 15.34375 23.75 15 Z M 25 14.375 L 26.875 14.375 L 26.875 12.5 L 25 12.5 Z M 23.75 20.625 L 23.75 17.5 C 23.75 17.15625 24.03125 16.875 24.375 16.875 L 27.5 16.875 C 27.84375 16.875 28.125 17.15625 28.125 17.5 L 28.125 20.625 C 28.125 20.96875 27.84375 21.25 27.5 21.25 L 24.375 21.25 C 24.03125 21.25 23.75 20.96875 23.75 20.625 Z M 25 20 L 26.875 20 L 26.875 18.125 L 25 18.125 Z M 15 31.25 L 16.25 31.25 L 16.25 30 L 15 30 Z M 12.5 31.25 L 13.75 31.25 L 13.75 30 L 12.5 30 Z M 10 31.25 L 11.25 31.25 L 11.25 30 L 10 30 Z M 20.515625 23.015625 C 21.234375 22.300781 21.445312 21.226562 21.058594 20.292969 C 20.671875 19.359375 19.761719 18.75 18.75 18.75 L 14.375 18.75 L 14.375 20.625 C 14.375 20.96875 14.09375 21.25 13.75 21.25 L 12.835938 21.25 L 11.769531 22.847656 C 11.652344 23.019531 11.457031 23.125 11.25 23.125 C 11.042969 23.125 10.847656 23.019531 10.730469 22.847656 L 9.664062 21.25 L 8.75 21.25 C 8.40625 21.25 8.125 20.96875 8.125 20.625 L 8.125 18.75 L 7.5 18.75 C 5.429688 18.75 3.75 17.070312 3.75 15 C 3.75 12.929688 5.429688 11.25 7.5 11.25 L 13.492188 11.25 L 12.925781 10.6875 C 12.25 10.015625 11.871094 9.097656 11.875 8.144531 L 11.875 8.125 C 11.875 6.398438 13.273438 5 15 5 C 16.726562 5 18.125 6.398438 18.125 8.125 L 18.125 8.144531 C 18.128906 9.097656 17.75 10.015625 17.074219 10.6875 L 16.507812 11.25 L 18.75 11.25 C 20.128906 11.25 21.25 10.128906 21.25 8.75 L 21.25 5 L 22.5 5 L 22.5 8.75 C 22.5 10.820312 20.820312 12.5 18.75 12.5 L 7.5 12.5 C 6.121094 12.5 5 13.621094 5 15 C 5 16.378906 6.121094 17.5 7.5 17.5 L 8.125 17.5 L 8.125 16.25 C 8.125 15.90625 8.40625 15.625 8.75 15.625 L 13.75 15.625 C 14.09375 15.625 14.375 15.90625 14.375 16.25 L 14.375 17.5 L 18.75 17.5 C 20.820312 17.5 22.5 19.179688 22.5 21.25 C 22.5 23.320312 20.820312 25 18.75 25 L 7.5 25 C 6.121094 25 5 26.121094 5 27.5 C 5 28.878906 6.121094 30 7.5 30 L 8.75 30 L 8.75 31.25 L 7.5 31.25 C 5.429688 31.25 3.75 29.570312 3.75 27.5 C 3.75 25.429688 5.429688 23.75 7.5 23.75 L 18.75 23.75 C 19.414062 23.75 20.050781 23.488281 20.515625 23.015625 Z M 13.125 8.144531 C 13.125 8.765625 13.371094 9.363281 13.8125 9.800781 L 15 10.992188 L 16.1875 9.800781 C 16.628906 9.363281 16.875 8.765625 16.875 8.144531 L 16.875 8.125 C 16.875 7.089844 16.035156 6.25 15 6.25 C 13.964844 6.25 13.125 7.089844 13.125 8.125 Z M 13.125 16.875 L 9.375 16.875 L 9.375 20 L 10 20 C 10.207031 20 10.402344 20.105469 10.519531 20.277344 L 11.25 21.375 L 11.980469 20.277344 C 12.097656 20.105469 12.292969 20 12.5 20 L 13.125 20 Z M 38.605469 2.917969 C 38.703125 3.183594 38.75 3.464844 38.75 3.75 L 38.75 31.25 C 38.75 32.628906 37.628906 33.75 36.25 33.75 L 26.015625 33.75 L 23.117188 36.957031 C 23.113281 36.964844 23.105469 36.972656 23.097656 36.980469 C 23.089844 36.988281 23.085938 36.992188 23.078125 37 C 23.0625 37.011719 23.046875 37.027344 23.03125 37.039062 C 23.027344 37.039062 23.023438 37.042969 23.019531 37.046875 C 23 37.0625 22.980469 37.074219 22.957031 37.085938 C 22.953125 37.089844 22.949219 37.089844 22.945312 37.09375 C 22.929688 37.101562 22.910156 37.109375 22.890625 37.117188 C 22.886719 37.121094 22.886719 37.121094 22.882812 37.121094 L 18.976562 38.648438 C 18.757812 38.734375 18.507812 38.6875 18.332031 38.53125 C 18.15625 38.371094 18.085938 38.128906 18.148438 37.898438 L 19.269531 33.859375 C 19.269531 33.855469 19.273438 33.851562 19.273438 33.847656 C 19.277344 33.828125 19.285156 33.8125 19.292969 33.796875 C 19.292969 33.789062 19.296875 33.78125 19.300781 33.773438 C 19.304688 33.765625 19.308594 33.757812 19.3125 33.75 L 7.5 33.75 L 7.5 38.125 C 7.5 38.46875 7.21875 38.75 6.875 38.75 L 4.375 38.75 C 2.648438 38.75 1.25 37.351562 1.25 35.625 L 1.25 5.625 C 1.25 3.898438 2.648438 2.5 4.375 2.5 L 33.75 2.5 L 33.75 1.875 C 33.75 1.53125 34.03125 1.25 34.375 1.25 L 36.25 1.25 C 37.308594 1.25 38.253906 1.917969 38.605469 2.917969 Z M 35 22.164062 C 35.097656 22.554688 35.097656 22.964844 35 23.359375 L 35 28.75 L 36.25 28.75 C 36.6875 28.75 37.121094 28.867188 37.5 29.085938 L 37.5 3.75 C 37.5 3.609375 37.476562 3.46875 37.429688 3.335938 C 37.253906 2.835938 36.78125 2.5 36.25 2.5 L 35 2.5 Z M 30.570312 26.84375 L 30.105469 26.425781 L 22.144531 35.238281 L 22.609375 35.65625 Z M 20.753906 33.980469 L 21.21875 34.398438 L 29.175781 25.585938 L 28.714844 25.167969 Z M 32.246094 24.988281 L 30.390625 23.3125 L 29.550781 24.242188 L 31.40625 25.914062 Z M 33.410156 21.832031 C 32.898438 21.367188 32.109375 21.410156 31.644531 21.921875 L 31.226562 22.386719 L 32.25 23.308594 L 33.082031 24.0625 L 33.5 23.597656 C 33.964844 23.085938 33.921875 22.292969 33.410156 21.832031 Z M 2.5 32.5 L 2.5 33.125 C 3.039062 32.71875 3.699219 32.5 4.375 32.5 L 20.40625 32.5 L 20.84375 32.019531 C 20.46875 31.535156 19.890625 31.253906 19.28125 31.25 L 17.5 31.25 L 17.5 30 L 19.28125 30 C 20.199219 30.003906 21.074219 30.398438 21.6875 31.082031 L 28.203125 23.867188 L 29.878906 22.011719 L 30.71875 21.082031 C 31.488281 20.230469 32.738281 20.011719 33.75 20.554688 L 33.75 20 L 30 20 C 29.65625 20 29.375 19.71875 29.375 19.375 C 29.375 19.03125 29.65625 18.75 30 18.75 L 33.75 18.75 L 33.75 14.375 L 30 14.375 C 29.65625 14.375 29.375 14.09375 29.375 13.75 C 29.375 13.40625 29.65625 13.125 30 13.125 L 33.75 13.125 L 33.75 8.125 L 30 8.125 C 29.65625 8.125 29.375 7.84375 29.375 7.5 C 29.375 7.15625 29.65625 6.875 30 6.875 L 33.75 6.875 L 33.75 3.75 L 4.375 3.75 C 3.339844 3.75 2.5 4.589844 2.5 5.625 Z M 6.25 33.75 L 4.375 33.75 C 3.339844 33.75 2.5 34.589844 2.5 35.625 C 2.5 36.660156 3.339844 37.5 4.375 37.5 L 6.25 37.5 Z M 21.484375 36.324219 L 21.042969 35.925781 L 20.203125 35.167969 L 19.6875 37.027344 Z M 37.5 31.25 C 37.5 30.558594 36.941406 30 36.25 30 L 34.375 30 C 34.03125 30 33.75 29.71875 33.75 29.375 L 33.75 25.1875 L 33.589844 25.363281 L 31.914062 27.21875 L 27.144531 32.5 L 36.25 32.5 C 36.941406 32.5 37.5 31.941406 37.5 31.25 Z M 37.5 31.25 "/>
</g>
</svg>
