<?xml version="1.0" encoding="UTF-8"?>
<svg xmlns="http://www.w3.org/2000/svg" xmlns:xlink="http://www.w3.org/1999/xlink" width="40px" height="px" viewBox="0 0 40 40" version="1.1">
<g id="surface1">
<path style=" stroke:none;fill-rule:nonzero;fill:rgb(32.156863%,38.431373%,45.098039%);fill-opacity:1;" d="M 28.125 3.125 L 28.125 5 L 25.625 5.625 L 28.125 6.875 L 28.125 8.125 C 28.125 8.816406 28.683594 9.375 29.375 9.375 L 36.875 9.375 C 37.566406 9.375 38.125 8.816406 38.125 8.125 L 38.125 3.125 C 38.125 2.433594 37.566406 1.875 36.875 1.875 L 29.375 1.875 C 28.683594 1.875 28.125 2.433594 28.125 3.125 Z M 28.125 3.125 "/>
<path style=" stroke:none;fill-rule:nonzero;fill:rgb(42.745098%,51.372549%,60%);fill-opacity:1;" d="M 13.125 13.75 L 26.875 13.75 L 26.875 23.75 L 13.125 23.75 Z M 13.125 13.75 "/>
<path style=" stroke:none;fill-rule:nonzero;fill:rgb(90.196078%,90.196078%,90.196078%);fill-opacity:1;" d="M 30 5 L 31.25 5 L 31.25 6.25 L 30 6.25 Z M 30 5 "/>
<path style=" stroke:none;fill-rule:nonzero;fill:rgb(90.196078%,90.196078%,90.196078%);fill-opacity:1;" d="M 32.5 5 L 33.75 5 L 33.75 6.25 L 32.5 6.25 Z M 32.5 5 "/>
<path style=" stroke:none;fill-rule:nonzero;fill:rgb(90.196078%,90.196078%,90.196078%);fill-opacity:1;" d="M 35 5 L 36.25 5 L 36.25 6.25 L 35 6.25 Z M 35 5 "/>
<path style=" stroke:none;fill-rule:nonzero;fill:rgb(32.156863%,38.431373%,45.098039%);fill-opacity:1;" d="M 13.125 15.625 L 26.875 15.625 L 26.875 16.875 L 13.125 16.875 Z M 13.125 15.625 "/>
<path style=" stroke:none;fill-rule:nonzero;fill:rgb(67.843137%,76.862745%,90.196078%);fill-opacity:1;" d="M 10.625 38.75 L 3.125 38.75 L 3.125 35 C 3.125 33.621094 4.246094 32.5 5.625 32.5 L 8.125 32.5 C 9.503906 32.5 10.625 33.621094 10.625 35 Z M 10.625 38.75 "/>
<path style=" stroke:none;fill-rule:nonzero;fill:rgb(63.921569%,72.54902%,85.098039%);fill-opacity:1;" d="M 5.625 32.5 L 6.875 32.5 C 5.496094 32.5 4.375 33.621094 4.375 35 L 4.375 38.75 L 3.125 38.75 L 3.125 35 C 3.125 33.621094 4.246094 32.5 5.625 32.5 Z M 5.625 32.5 "/>
<path style=" stroke:none;fill-rule:nonzero;fill:rgb(67.843137%,76.862745%,90.196078%);fill-opacity:1;" d="M 19.375 38.75 L 11.875 38.75 L 11.875 35 C 11.875 33.621094 12.996094 32.5 14.375 32.5 L 16.875 32.5 C 18.253906 32.5 19.375 33.621094 19.375 35 Z M 19.375 38.75 "/>
<path style=" stroke:none;fill-rule:nonzero;fill:rgb(45.882353%,60.392157%,80%);fill-opacity:1;" d="M 36.875 38.75 L 29.375 38.75 L 29.375 35 C 29.375 33.621094 30.496094 32.5 31.875 32.5 L 34.375 32.5 C 35.753906 32.5 36.875 33.621094 36.875 35 Z M 36.875 38.75 "/>
<path style=" stroke:none;fill-rule:nonzero;fill:rgb(45.882353%,60.392157%,80%);fill-opacity:1;" d="M 28.125 38.75 L 20.625 38.75 L 20.625 35 C 20.625 33.621094 21.746094 32.5 23.125 32.5 L 25.625 32.5 C 27.003906 32.5 28.125 33.621094 28.125 35 Z M 28.125 38.75 "/>
<path style=" stroke:none;fill-rule:nonzero;fill:rgb(42.745098%,56.470588%,74.901961%);fill-opacity:1;" d="M 34.375 32.5 L 33.125 32.5 C 34.503906 32.5 35.625 33.621094 35.625 35 L 35.625 38.75 L 36.875 38.75 L 36.875 35 C 36.875 33.621094 35.753906 32.5 34.375 32.5 Z M 34.375 32.5 "/>
<path style=" stroke:none;fill-rule:nonzero;fill:rgb(81.176471%,81.176471%,81.176471%);fill-opacity:1;" d="M 15.625 13.75 L 24.375 13.75 L 24.375 10.015625 C 24.375 8.636719 23.253906 7.515625 21.875 7.515625 L 18.125 7.515625 C 16.746094 7.515625 15.625 8.636719 15.625 10.015625 Z M 15.625 13.75 "/>
<path style=" stroke:none;fill-rule:nonzero;fill:rgb(100%,85.882353%,67.45098%);fill-opacity:1;" d="M 23.125 4.390625 C 23.125 6.117188 21.722656 7.515625 20 7.515625 C 18.277344 7.515625 16.875 6.117188 16.875 4.390625 C 16.875 4.339844 16.875 4.289062 16.878906 4.234375 C 16.964844 2.585938 18.328125 1.265625 20 1.265625 C 21.671875 1.265625 23.035156 2.585938 23.121094 4.234375 C 23.125 4.289062 23.125 4.339844 23.125 4.390625 Z M 23.125 4.390625 "/>
<path style=" stroke:none;fill-rule:nonzero;fill:rgb(32.156863%,38.431373%,45.098039%);fill-opacity:1;" d="M 23.121094 4.207031 C 23.042969 3.007812 22.226562 1.859375 21.085938 1.4375 C 18.949219 0.648438 16.628906 2.46875 16.894531 4.71875 C 17.597656 3.734375 18.792969 3.121094 20.003906 3.121094 C 21.214844 3.125 22.410156 3.742188 23.105469 4.730469 C 23.125 4.554688 23.128906 4.382812 23.121094 4.207031 Z M 23.121094 4.207031 "/>
<path style=" stroke:none;fill-rule:nonzero;fill:rgb(100%,85.882353%,67.45098%);fill-opacity:1;" d="M 18.125 29.972656 C 18.125 31.351562 17.003906 32.472656 15.625 32.472656 C 14.246094 32.472656 13.125 31.351562 13.125 29.972656 C 13.125 29.929688 13.125 29.890625 13.128906 29.847656 C 13.195312 28.527344 14.289062 27.472656 15.625 27.472656 C 16.960938 27.472656 18.054688 28.527344 18.121094 29.847656 C 18.125 29.890625 18.125 29.929688 18.125 29.972656 Z M 18.125 29.972656 "/>
<path style=" stroke:none;fill-rule:nonzero;fill:rgb(94.901961%,81.568627%,63.921569%);fill-opacity:1;" d="M 13.75 29.972656 C 13.75 29.929688 13.75 29.890625 13.753906 29.847656 C 13.816406 28.632812 14.75 27.652344 15.9375 27.503906 C 15.835938 27.488281 15.730469 27.472656 15.625 27.472656 C 14.289062 27.472656 13.195312 28.527344 13.128906 29.847656 C 13.125 29.890625 13.125 29.929688 13.125 29.972656 C 13.125 31.351562 14.246094 32.472656 15.625 32.472656 C 15.730469 32.472656 15.832031 32.453125 15.9375 32.441406 C 14.707031 32.285156 13.75 31.246094 13.75 29.972656 Z M 13.75 29.972656 "/>
<path style=" stroke:none;fill-rule:nonzero;fill:rgb(32.156863%,38.431373%,45.098039%);fill-opacity:1;" d="M 15.625 29.347656 C 16.570312 29.347656 17.433594 29.699219 18.09375 30.28125 C 18.105469 30.179688 18.125 30.078125 18.125 29.972656 C 18.125 29.929688 18.125 29.890625 18.121094 29.847656 C 18.054688 28.527344 16.960938 27.472656 15.625 27.472656 C 14.289062 27.472656 13.195312 28.527344 13.128906 29.847656 C 13.125 29.890625 13.125 29.929688 13.125 29.972656 C 13.125 30.078125 13.144531 30.179688 13.15625 30.28125 C 13.816406 29.699219 14.679688 29.347656 15.625 29.347656 Z M 15.625 29.347656 "/>
<path style=" stroke:none;fill-rule:nonzero;fill:rgb(28.627451%,34.117647%,40%);fill-opacity:1;" d="M 13.753906 29.847656 C 13.816406 28.632812 14.75 27.652344 15.9375 27.503906 C 15.835938 27.488281 15.730469 27.472656 15.625 27.472656 C 14.289062 27.472656 13.195312 28.527344 13.128906 29.847656 C 13.125 29.890625 13.125 29.929688 13.125 29.972656 C 13.125 30.078125 13.144531 30.179688 13.15625 30.28125 C 13.339844 30.121094 13.542969 29.980469 13.753906 29.859375 C 13.753906 29.855469 13.753906 29.851562 13.753906 29.847656 Z M 13.753906 29.847656 "/>
<path style=" stroke:none;fill-rule:nonzero;fill:rgb(100%,85.882353%,67.45098%);fill-opacity:1;" d="M 9.375 29.972656 C 9.375 31.351562 8.253906 32.472656 6.875 32.472656 C 5.496094 32.472656 4.375 31.351562 4.375 29.972656 C 4.375 29.929688 4.375 29.890625 4.378906 29.847656 C 4.445312 28.527344 5.539062 27.472656 6.875 27.472656 C 8.210938 27.472656 9.304688 28.527344 9.371094 29.847656 C 9.375 29.890625 9.375 29.929688 9.375 29.972656 Z M 9.375 29.972656 "/>
<path style=" stroke:none;fill-rule:nonzero;fill:rgb(94.901961%,81.568627%,63.921569%);fill-opacity:1;" d="M 5 29.972656 C 5 29.929688 5 29.890625 5.003906 29.847656 C 5.066406 28.632812 6 27.652344 7.1875 27.503906 C 7.085938 27.488281 6.980469 27.472656 6.875 27.472656 C 5.539062 27.472656 4.445312 28.527344 4.378906 29.847656 C 4.375 29.890625 4.375 29.929688 4.375 29.972656 C 4.375 31.351562 5.496094 32.472656 6.875 32.472656 C 6.980469 32.472656 7.082031 32.453125 7.1875 32.441406 C 5.957031 32.285156 5 31.246094 5 29.972656 Z M 5 29.972656 "/>
<path style=" stroke:none;fill-rule:nonzero;fill:rgb(32.156863%,38.431373%,45.098039%);fill-opacity:1;" d="M 6.875 29.347656 C 7.820312 29.347656 8.683594 29.699219 9.34375 30.28125 C 9.355469 30.179688 9.375 30.078125 9.375 29.972656 C 9.375 29.929688 9.375 29.890625 9.371094 29.847656 C 9.304688 28.527344 8.210938 27.472656 6.875 27.472656 C 5.539062 27.472656 4.445312 28.527344 4.378906 29.847656 C 4.375 29.890625 4.375 29.929688 4.375 29.972656 C 4.375 30.078125 4.394531 30.179688 4.40625 30.28125 C 5.066406 29.699219 5.929688 29.347656 6.875 29.347656 Z M 6.875 29.347656 "/>
<path style=" stroke:none;fill-rule:nonzero;fill:rgb(28.627451%,34.117647%,40%);fill-opacity:1;" d="M 5.003906 29.847656 C 5.066406 28.632812 6 27.652344 7.1875 27.503906 C 7.085938 27.488281 6.980469 27.472656 6.875 27.472656 C 5.539062 27.472656 4.445312 28.527344 4.378906 29.847656 C 4.375 29.890625 4.375 29.929688 4.375 29.972656 C 4.375 30.078125 4.394531 30.179688 4.40625 30.28125 C 4.589844 30.121094 4.792969 29.980469 5.003906 29.859375 C 5.003906 29.855469 5.003906 29.851562 5.003906 29.847656 Z M 5.003906 29.847656 "/>
<path style=" stroke:none;fill-rule:nonzero;fill:rgb(100%,85.882353%,67.45098%);fill-opacity:1;" d="M 21.875 29.972656 C 21.875 31.351562 22.996094 32.472656 24.375 32.472656 C 25.753906 32.472656 26.875 31.351562 26.875 29.972656 C 26.875 29.929688 26.875 29.890625 26.871094 29.847656 C 26.804688 28.527344 25.710938 27.472656 24.375 27.472656 C 23.039062 27.472656 21.945312 28.527344 21.878906 29.847656 C 21.875 29.890625 21.875 29.929688 21.875 29.972656 Z M 21.875 29.972656 "/>
<path style=" stroke:none;fill-rule:nonzero;fill:rgb(94.901961%,81.568627%,63.921569%);fill-opacity:1;" d="M 26.25 29.972656 C 26.25 29.929688 26.25 29.890625 26.246094 29.847656 C 26.183594 28.632812 25.25 27.652344 24.0625 27.503906 C 24.164062 27.488281 24.269531 27.472656 24.375 27.472656 C 25.710938 27.472656 26.804688 28.527344 26.871094 29.847656 C 26.875 29.890625 26.875 29.929688 26.875 29.972656 C 26.875 31.351562 25.753906 32.472656 24.375 32.472656 C 24.269531 32.472656 24.167969 32.453125 24.0625 32.441406 C 25.292969 32.285156 26.25 31.246094 26.25 29.972656 Z M 26.25 29.972656 "/>
<path style=" stroke:none;fill-rule:nonzero;fill:rgb(32.156863%,38.431373%,45.098039%);fill-opacity:1;" d="M 24.375 29.347656 C 23.429688 29.347656 22.566406 29.699219 21.90625 30.28125 C 21.894531 30.179688 21.875 30.078125 21.875 29.972656 C 21.875 29.929688 21.875 29.890625 21.878906 29.847656 C 21.945312 28.527344 23.039062 27.472656 24.375 27.472656 C 25.710938 27.472656 26.804688 28.527344 26.871094 29.847656 C 26.875 29.890625 26.875 29.929688 26.875 29.972656 C 26.875 30.078125 26.855469 30.179688 26.84375 30.28125 C 26.183594 29.699219 25.320312 29.347656 24.375 29.347656 Z M 24.375 29.347656 "/>
<path style=" stroke:none;fill-rule:nonzero;fill:rgb(28.627451%,34.117647%,40%);fill-opacity:1;" d="M 26.246094 29.847656 C 26.183594 28.632812 25.25 27.652344 24.0625 27.503906 C 24.164062 27.488281 24.269531 27.472656 24.375 27.472656 C 25.710938 27.472656 26.804688 28.527344 26.871094 29.847656 C 26.875 29.890625 26.875 29.929688 26.875 29.972656 C 26.875 30.078125 26.855469 30.179688 26.84375 30.28125 C 26.660156 30.121094 26.457031 29.980469 26.246094 29.859375 C 26.246094 29.855469 26.246094 29.851562 26.246094 29.847656 Z M 26.246094 29.847656 "/>
<path style=" stroke:none;fill-rule:nonzero;fill:rgb(100%,85.882353%,67.45098%);fill-opacity:1;" d="M 30.625 29.972656 C 30.625 31.351562 31.746094 32.472656 33.125 32.472656 C 34.503906 32.472656 35.625 31.351562 35.625 29.972656 C 35.625 29.929688 35.625 29.890625 35.621094 29.847656 C 35.554688 28.527344 34.460938 27.472656 33.125 27.472656 C 31.789062 27.472656 30.695312 28.527344 30.628906 29.847656 C 30.625 29.890625 30.625 29.929688 30.625 29.972656 Z M 30.625 29.972656 "/>
<path style=" stroke:none;fill-rule:nonzero;fill:rgb(94.901961%,81.568627%,63.921569%);fill-opacity:1;" d="M 35 29.972656 C 35 29.929688 35 29.890625 34.996094 29.847656 C 34.933594 28.632812 34 27.652344 32.8125 27.503906 C 32.914062 27.488281 33.019531 27.472656 33.125 27.472656 C 34.460938 27.472656 35.554688 28.527344 35.621094 29.847656 C 35.625 29.890625 35.625 29.929688 35.625 29.972656 C 35.625 31.351562 34.503906 32.472656 33.125 32.472656 C 33.019531 32.472656 32.917969 32.453125 32.8125 32.441406 C 34.042969 32.285156 35 31.246094 35 29.972656 Z M 35 29.972656 "/>
<path style=" stroke:none;fill-rule:nonzero;fill:rgb(32.156863%,38.431373%,45.098039%);fill-opacity:1;" d="M 33.125 29.347656 C 32.179688 29.347656 31.316406 29.699219 30.65625 30.28125 C 30.644531 30.179688 30.625 30.078125 30.625 29.972656 C 30.625 29.929688 30.625 29.890625 30.628906 29.847656 C 30.695312 28.527344 31.789062 27.472656 33.125 27.472656 C 34.460938 27.472656 35.554688 28.527344 35.621094 29.847656 C 35.625 29.890625 35.625 29.929688 35.625 29.972656 C 35.625 30.078125 35.605469 30.179688 35.59375 30.28125 C 34.933594 29.699219 34.070312 29.347656 33.125 29.347656 Z M 33.125 29.347656 "/>
<path style=" stroke:none;fill-rule:nonzero;fill:rgb(28.627451%,34.117647%,40%);fill-opacity:1;" d="M 34.996094 29.847656 C 34.933594 28.632812 34 27.652344 32.8125 27.503906 C 32.914062 27.488281 33.019531 27.472656 33.125 27.472656 C 34.460938 27.472656 35.554688 28.527344 35.621094 29.847656 C 35.625 29.890625 35.625 29.929688 35.625 29.972656 C 35.625 30.078125 35.605469 30.179688 35.59375 30.28125 C 35.410156 30.121094 35.207031 29.980469 34.996094 29.859375 C 34.996094 29.855469 34.996094 29.851562 34.996094 29.847656 Z M 34.996094 29.847656 "/>
</g>
</svg>
